{
    "asset": {
        "version": "2.0",
        "generator": "Open Asset Import Library (assimp v5.2.cf7d3637)"
    },
    "extensionsUsed": [
        "KHR_materials_volume",
        "FB_ngon_encoding"
    ],
    "accessors": [
        {
            "bufferView": 0,
            "byteOffset": 0,
            "componentType": 5126,
            "count": 102474,
            "type": "VEC3",
            "max": [
                0.8353180289268494,
                0.9447730183601379,
                0.6200330257415772
            ],
            "min": [
                -0.8337810039520264,
                -0.9530659914016724,
                -0.6219930052757263
            ]
        },
        {
            "bufferView": 1,
            "byteOffset": 0,
            "componentType": 5126,
            "count": 102474,
            "type": "VEC3",
            "max": [
                0.9999508857727051,
                0.9999746680259705,
                0.999999463558197
            ],
            "min": [
                -0.9999869465827942,
                -0.9999669790267944,
                -0.9999995827674866
            ]
        },
        {
            "bufferView": 2,
            "byteOffset": 0,
            "componentType": 5126,
            "count": 102474,
            "type": "VEC2",
            "max": [
                0.974066972732544,
                0.9995009899139404
            ],
            "min": [
                0.0004990000161342323,
                0.0004990100860595703
            ]
        },
        {
            "bufferView": 3,
            "byteOffset": 0,
            "componentType": 5125,
            "count": 102474,
            "type": "SCALAR",
            "max": [
                102473
            ],
            "min": [
                0
            ]
        }
    ],
    "buffers": [
        {
            "byteLength": 3689064,
            "uri": "result.bin"
        }
    ],
    "bufferViews": [
        {
            "buffer": 0,
            "byteOffset": 0,
            "byteLength": 1229688,
            "target": 34962
        },
        {
            "buffer": 0,
            "byteOffset": 1229688,
            "byteLength": 1229688,
            "target": 34962
        },
        {
            "buffer": 0,
            "byteOffset": 2459376,
            "byteLength": 819792,
            "target": 34962
        },
        {
            "buffer": 0,
            "byteOffset": 3279168,
            "byteLength": 409896,
            "target": 34963
        }
    ],
    "images": [
        {
            "uri": "data:image/png;base64,"
        },
        {
            "uri": "data:image/png;base64,"
        },
        {
            "uri": "data:image/png;base64,"
        }
    ],
    "materials": [
        {
            "name": "place_holder",
            "pbrMetallicRoughness": {
                "baseColorTexture": {
                    "index": 0
                },
                "metallicRoughnessTexture": {
                    "index": 1
                }
            },
            "normalTexture": {
                "index": 2
            },
            "doubleSided": true
        },
        {
            "name": "material"
        }
    ],
    "meshes": [
        {
            "name": "model",
            "primitives": [
                {
                    "mode": 4,
                    "material": 0,
                    "indices": 3,
                    "attributes": {
                        "POSITION": 0,
                        "NORMAL": 1,
                        "TEXCOORD_0": 2
                    }
                }
            ]
        }
    ],
    "nodes": [
        {
            "name": "world",
            "children": [
                1
            ]
        },
        {
            "name": "model",
            "mesh": 0
        }
    ],
    "samplers": [
        {},
        {},
        {}
    ],
    "scenes": [
        {
            "nodes": [
                0
            ]
        }
    ],
    "textures": [
        {
            "source": 0,
            "sampler": 0
        },
        {
            "source": 1,
            "sampler": 1
        },
        {
            "source": 2,
            "sampler": 2
        }
    ],
    "scene": 0
}